# xmcd
#
# Track frame offsets:
#	150
#	12217
#	25400
#	34813
#	45333
#	54694
#	70276
#	94314
#	105666
#	116250
#	127005
#	138022
#	149962
#	163065
#	174620
#	186927
#	205946
#	217355
#	226681
#	240016
#
# Disc length: 3370 seconds
#
# Revision: 4
# Processed by: cddbd v1.5.2PL0 Copyright (c) Steve Scherf et al.
# Submitted via: audiograbber 1.83.01
#
DISCID=210d2814
DTITLE=Various Artist - 100 Hits - Country Greats [Disc 2]
DYEAR=2015
DGENRE=Country
TTITLE0=Tammy Wynette - Stand By Your Man
TTITLE1=Lynn Anderson - Rose Garden
TTITLE2=Barbara Mandrell - Tonight My Baby's Coming Home
TTITLE3=George Jones - Her Name Is...
TTITLE4=Jim Reeves - There's A Heartache Following Me
TTITLE5=Kris Kristofferson - Why Me?
TTITLE6=Charlie Daniels Band - Uneasy Rider
TTITLE7=Johnny Cash and The Evangelical Temple Choir - A Thing Called Love
TTITLE8=The Statler Brothers - Flowers On The Wall
TTITLE9=Porter Wagoner - Green, Green Grass Of Home
TTITLE10=Jimmy Dean - Little Black Book
TTITLE11=Don Gibson - I Can't Stop Loving You
TTITLE12=Marty Robbins - Devil Woman
TTITLE13=George Hamiltion IV - She's A Little Bit Country
TTITLE14=Bobby Bare - 500 Miles Away From Home
TTITLE15=Billy Swan - Don't Be Cruel
TTITLE16=Ray Price - Crazy Arms
TTITLE17=Charley Pride - Kiss An Angel Good Mornin'
TTITLE18=Charlie Rich - Behind Closed Doors
TTITLE19=John Denver - Thank God I'm A Country Boy
EXTD=
EXTT0=
EXTT1=
EXTT2=
EXTT3=
EXTT4=
EXTT5=
EXTT6=
EXTT7=
EXTT8=
EXTT9=
EXTT10=
EXTT11=
EXTT12=
EXTT13=
EXTT14=
EXTT15=
EXTT16=
EXTT17=
EXTT18=
EXTT19=
PLAYORDER=
